<svg width="120" height="121" viewBox="0 0 120 121" fill="none" xmlns="http://www.w3.org/2000/svg">
<path d="M62.5 60.233V35.863C62.5 35.2 62.2366 34.5641 61.7678 34.0953C61.2989 33.6264 60.663 33.363 60 33.363C59.337 33.363 58.7011 33.6264 58.2322 34.0953C57.7634 34.5641 57.5 35.2 57.5 35.863V60.863C57.5 61.273 57.6 61.683 57.8 62.043L65.3 76.043C65.6145 76.625 66.1468 77.0585 66.7803 77.2488C67.4138 77.439 68.0969 77.3704 68.68 77.058H68.685C69.2682 76.7435 69.7028 76.2103 69.8931 75.5756C70.0834 74.9409 70.014 74.2566 69.7 73.673L62.5 60.233ZM60 10.863C32.385 10.863 10 33.248 10 60.863C10 88.478 32.385 110.863 60 110.863C87.6 110.833 109.97 88.463 110 60.863C110 33.248 87.615 10.863 60 10.863ZM60 105.863C54.0905 105.863 48.2389 104.699 42.7792 102.438C37.3196 100.176 32.3588 96.8615 28.1802 92.6828C24.0016 88.5042 20.6869 83.5434 18.4254 78.0838C16.164 72.6241 15 66.7725 15 60.863C15 54.9536 16.164 49.1019 18.4254 43.6423C20.6869 38.1826 24.0016 33.2219 28.1802 29.0432C32.3588 24.8646 37.3196 21.5499 42.7792 19.2885C48.2389 17.027 54.0905 15.863 60 15.863C71.9307 15.8763 83.3689 20.6216 91.8052 29.0578C100.241 37.4941 104.987 48.9324 105 60.863C105 72.7978 100.259 84.2437 91.8198 92.6828C83.3807 101.122 71.9347 105.863 60 105.863Z" fill="#875DD0"/>
</svg>
