<svg width="120" height="121" viewBox="0 0 120 121" fill="none" xmlns="http://www.w3.org/2000/svg">
<path d="M25 48.2043H95V33.2043C95 32.4377 94.68 31.7327 94.04 31.0893C93.3967 30.4493 92.6917 30.1293 91.925 30.1293H28.075C27.3083 30.1293 26.6033 30.4493 25.96 31.0893C25.32 31.7327 25 32.4377 25 33.2043V48.2043ZM28.075 105.129C25.775 105.129 23.855 104.359 22.315 102.819C20.7717 101.276 20 99.3543 20 97.0543V33.2043C20 30.9043 20.7717 28.9843 22.315 27.4443C23.855 25.901 25.775 25.1293 28.075 25.1293H36.925V13.9793H42.31V25.1293H78.075V13.9793H83.075V25.1293H91.925C94.225 25.1293 96.145 25.901 97.685 27.4443C99.2283 28.9843 100 30.9043 100 33.2043V59.4643C99.1867 59.1643 98.3633 58.941 97.53 58.7943C96.6967 58.6443 95.8533 58.5093 95 58.3893V53.2043H25V97.0543C25 97.821 25.32 98.526 25.96 99.1693C26.6033 99.8093 27.3083 100.129 28.075 100.129H61.595C61.8617 101.063 62.1967 101.931 62.6 102.734C63.0067 103.534 63.4317 104.333 63.875 105.129H28.075ZM91.925 110.129C86.3517 110.129 81.625 108.189 77.745 104.309C73.865 100.423 71.925 95.696 71.925 90.1293C71.925 84.5627 73.865 79.836 77.745 75.9493C81.625 72.0693 86.3517 70.1293 91.925 70.1293C97.4917 70.1293 102.217 72.0693 106.1 75.9493C109.983 79.8293 111.925 84.556 111.925 90.1293C111.925 95.6993 109.983 100.426 106.1 104.309C102.217 108.193 97.4917 110.133 91.925 110.129ZM100.2 101.139L102.935 98.4093L93.845 89.3193V75.7043H90V90.9393L100.2 101.139Z" fill="#875DD0"/>
</svg>
