<svg width="180" height="54" viewBox="0 0 180 54" fill="none" xmlns="http://www.w3.org/2000/svg">
<path d="M77.5353 3.25781C81.3573 3.25781 84.4599 4.86206 84.4599 8.67744C84.4599 10.7659 83.2706 12.3411 81.5012 13.1399C83.7495 13.7758 85.4672 15.409 85.4672 18.4078C85.4672 22.6159 82.2027 24.8248 78.1153 24.8248H67.2539V3.25781H77.5353ZM71.8921 11.9774H76.2245C77.9624 11.9774 79.8217 11.645 79.8217 9.46506C79.8217 7.28516 78.0524 6.92147 76.2245 6.92147H71.8921V11.9774ZM71.8921 21.0607H76.6809C78.7246 21.0607 80.7076 20.6658 80.7076 18.1244C80.7076 15.5206 78.5717 15.1859 76.4359 15.1859H71.8921V21.0607Z" fill="#F8F8FA"/>
<path d="M95.7096 25.2655C90.86 25.2655 87.6562 21.9945 87.6562 17.0903C87.6562 12.2463 90.9815 8.73438 95.5589 8.73438C100.316 8.73438 103.338 12.1861 103.338 17.6593V18.0832H92.0494C92.1101 20.7852 93.4343 22.2377 95.741 22.2377C97.3283 22.2377 98.3041 21.5416 98.9448 19.9663H103.102C102.117 23.3533 99.2798 25.2655 95.7096 25.2655ZM95.5589 11.8536C93.6367 11.8536 92.2944 13.1924 92.0494 15.3656H98.9448C98.7605 13.4579 97.724 11.8536 95.5589 11.8536Z" fill="#F8F8FA"/>
<path d="M113.213 25.2655C108.364 25.2655 105.16 21.9945 105.16 17.0903C105.16 12.2463 108.485 8.73438 113.061 8.73438C117.82 8.73438 120.84 12.1861 120.84 17.6593V18.0832H109.553C109.616 20.7852 110.927 22.2377 113.245 22.2377C114.83 22.2377 115.808 21.5416 116.449 19.9663H120.597C119.621 23.3533 116.784 25.2655 113.213 25.2655ZM113.061 11.8536C111.141 11.8536 109.798 13.1924 109.553 15.3656H116.449C116.264 13.4579 115.237 11.8536 113.061 11.8536Z" fill="#F8F8FA"/>
<path d="M133.541 12.8711C132.99 12.7496 132.427 12.689 131.863 12.6904C128.873 12.6904 127.715 14.81 127.715 17.6548V24.7947H123.383V9.17619H127.502V12.0522C128.477 10.0241 130.247 8.8125 132.596 8.8125C132.913 8.81737 133.229 8.84797 133.541 8.90398V12.8711Z" fill="#F8F8FA"/>
<path d="M72.0857 52.8527H67.2969V31.2969H72.0857V52.8527Z" fill="#F8F8FA"/>
<path d="M86.2621 52.8442V43.7319C86.2621 41.7952 85.8979 40.3404 83.5799 40.3404C80.9854 40.3404 80.1626 42.1879 80.1626 44.4593V52.8442H75.8594V37.2257H79.9782V39.41C80.5669 38.5859 81.3502 37.9176 82.2595 37.4636C83.1689 37.0097 84.1765 36.7839 85.1942 36.8062C88.5194 36.8062 90.6553 38.7741 90.6553 42.4066V52.8509L86.2621 52.8442Z" fill="#F8F8FA"/>
<path d="M103.19 41.7582C102.945 40.1227 101.938 39.6096 100.2 39.6096C98.6735 39.6096 97.7585 40.183 97.7585 41.1536C97.7585 42.4544 99.1074 42.6351 101.603 43.1617C104.44 43.7373 107.734 44.4647 107.734 48.0056C107.734 51.2766 105.02 53.3048 100.54 53.3048C96.6051 53.3048 93.217 51.7608 93.1562 47.7647H97.2616C97.4145 49.6411 98.6353 50.3685 100.618 50.3685C102.388 50.3685 103.485 49.6099 103.485 48.4296C103.485 47.0909 102.203 46.8677 99.946 46.3412C97.1402 45.7053 93.48 45.2813 93.48 41.5574C93.48 38.4984 95.9801 36.7737 100.373 36.7737C103.97 36.7737 107.084 38.137 107.208 41.7694L103.19 41.7582Z" fill="#F8F8FA"/>
<path d="M114.743 34.9293H110.41V31.2969H114.743V34.9293ZM114.743 52.8527H110.41V37.2341H114.743V52.8527Z" fill="#F8F8FA"/>
<path d="M129.402 52.8527V50.8446C128.363 52.4489 126.807 53.2655 124.642 53.2655C120.281 53.2655 117.504 50.0257 117.504 44.9698C117.504 40.0366 120.22 36.7968 124.399 36.7968C126.259 36.7968 128.181 37.5532 129.188 39.1575V31.2969H133.489V52.8527H129.402ZM125.58 40.1972C123.23 40.1972 121.857 41.9822 121.857 44.9809C121.857 47.9797 123.259 49.8249 125.58 49.8249C127.958 49.8249 129.332 48.069 129.332 45.0122C129.332 41.9554 127.936 40.1972 125.589 40.1972H125.58Z" fill="#F8F8FA"/>
<path d="M144.217 53.3048C139.368 53.3048 136.164 50.0338 136.164 45.1296C136.164 40.2856 139.489 36.7737 144.064 36.7737C148.824 36.7737 151.844 40.2254 151.844 45.6986V46.1225H140.557C140.618 48.8178 141.929 50.2703 144.249 50.2703C145.823 50.2703 146.81 49.5742 147.45 47.9989H151.601C150.623 51.3971 147.788 53.3048 144.217 53.3048ZM144.064 39.8929C142.142 39.8929 140.8 41.2317 140.557 43.4049H147.45C147.268 41.4972 146.232 39.8929 144.064 39.8929Z" fill="#F8F8FA"/>
<path d="M164.52 40.9258C163.969 40.8043 163.407 40.7437 162.843 40.745C159.852 40.745 158.692 42.8625 158.692 45.7095V52.8494H154.355V37.2309H158.474V40.1069C159.45 38.0787 161.219 36.8672 163.569 36.8672C163.886 36.8709 164.202 36.9016 164.513 36.9587L164.52 40.9258Z" fill="#F8F8FA"/>
<path d="M175.454 41.7582C175.211 40.1227 174.204 39.6096 172.466 39.6096C170.939 39.6096 170.024 40.183 170.024 41.1536C170.024 42.4544 171.373 42.6351 173.869 43.1617C176.706 43.7373 180 44.4647 180 48.0056C180 51.2766 177.284 53.3048 172.805 53.3048C168.868 53.3048 165.483 51.7608 165.422 47.7647H169.541C169.694 49.6411 170.912 50.3685 172.897 50.3685C174.665 50.3685 175.764 49.6099 175.764 48.4296C175.764 47.0909 174.482 46.8677 172.225 46.3412C169.419 45.7053 165.757 45.2813 165.757 41.5574C165.757 38.4984 168.259 36.7737 172.652 36.7737C176.25 36.7737 179.363 38.137 179.485 41.7694L175.454 41.7582Z" fill="#F8F8FA"/>
<path d="M12.9905 6.66242H19.2587V0H0V6.66242H6.27718V47.2573H0V53.9197H19.2587V47.2573H12.9905V6.66242Z" fill="#F8F8FA"/>
<path d="M37.9066 25.8264V25.7438C43.3025 23.5394 45.4114 18.7713 45.4114 14.6658C45.4114 7.37641 39.8716 0 29.2845 0H24.5631V6.66242H29.2845C35.7865 6.66242 38.6958 10.6786 38.6958 14.6658C38.6958 18.9966 35.4178 22.6759 29.2845 22.6759H19.2617V29.3406C19.3854 29.3406 29.2845 29.2959 29.2845 29.4186C36.8522 29.4186 40.2381 33.919 40.2381 38.377C40.2381 42.835 36.8522 47.3353 29.2845 47.3353H24.5631V54H29.2845C40.8856 54 46.9537 46.1394 46.9537 38.3815C46.9537 33.6133 44.602 28.3521 37.9066 25.8264Z" fill="#F8F8FA"/>
</svg>
