<svg width="120" height="121" viewBox="0 0 120 121" fill="none" xmlns="http://www.w3.org/2000/svg">
<path fill-rule="evenodd" clip-rule="evenodd" d="M60 100.597C61.07 100.597 62.13 100.554 63.175 100.472C63.5897 102.185 64.2913 103.815 65.25 105.294C63.525 105.494 61.775 105.597 60 105.597C35.1475 105.597 15 85.4492 15 60.5967C15 35.7442 35.1475 15.5967 60 15.5967C84.8525 15.5967 105 35.7442 105 60.5967C105 62.0617 104.93 63.5117 104.792 64.9392C103.315 64.0067 101.651 63.4102 99.9175 63.1917C99.9725 62.3342 100 61.4667 100 60.5967C100 38.5042 82.0925 20.5967 60 20.5967C37.9075 20.5967 20 38.5042 20 60.5967C20 82.6892 37.9075 100.597 60 100.597Z" fill="#875DD0"/>
<path d="M75 75.5967C75 78.9119 73.683 82.0914 71.3388 84.4356C68.9946 86.7798 65.8152 88.0967 62.5 88.0967C59.1848 88.0967 56.0054 86.7798 53.6612 84.4356C51.317 82.0914 50 78.9119 50 75.5967C50 72.2815 51.317 69.1021 53.6612 66.7579C56.0054 64.4137 59.1848 63.0967 62.5 63.0967C65.8152 63.0967 68.9946 64.4137 71.3388 66.7579C73.683 69.1021 75 72.2815 75 75.5967Z" fill="#875DD0"/>
<path fill-rule="evenodd" clip-rule="evenodd" d="M62.5 88.0967C65.8152 88.0967 68.9946 86.7798 71.3388 84.4356C73.683 82.0914 75 78.9119 75 75.5967C75 72.2815 73.683 69.1021 71.3388 66.7579C68.9946 64.4137 65.8152 63.0967 62.5 63.0967C59.1848 63.0967 56.0054 64.4137 53.6612 66.7579C51.317 69.1021 50 72.2815 50 75.5967C50 78.9119 51.317 82.0914 53.6612 84.4356C56.0054 86.7798 59.1848 88.0967 62.5 88.0967Z" fill="#875DD0"/>
<path d="M97.7675 68.1292C101.402 67.7792 104.625 70.2792 104.97 73.7092C105.315 77.1417 102.645 80.2092 99.0125 80.5592C93.255 81.1142 86.875 75.4542 86.875 75.4542C86.875 75.4542 92.01 68.6842 97.7675 68.1292ZM69.54 105.212C71.665 108.239 75.71 109.007 78.575 106.927C81.4425 104.844 82.04 100.702 79.915 97.6742C76.5475 92.8742 67.99 91.8467 67.99 91.8467C67.99 91.8467 66.17 100.414 69.54 105.212Z" fill="#875DD0"/>
<path fill-rule="evenodd" clip-rule="evenodd" d="M67.9901 91.8467C67.9901 91.8467 67.6576 93.4192 67.5401 95.5942C67.5201 95.9867 67.5051 96.3992 67.5001 96.8267C67.4751 99.5517 67.8751 102.842 69.5401 105.212C71.6651 108.239 75.7101 109.007 78.5751 106.927C81.4426 104.844 82.0401 100.702 79.9151 97.6742C78.2651 95.3242 75.3776 93.8817 72.8576 93.0167C72.3984 92.8596 71.9349 92.7154 71.4676 92.5842C70.3277 92.2584 69.1666 92.012 67.9926 91.8467" fill="#875DD0"/>
<path d="M100.41 86.6267C104.79 89.1692 106.358 94.6517 103.91 98.8642C101.46 103.082 95.9251 104.437 91.5451 101.894C84.6051 97.8642 82.1001 86.1992 82.1001 86.1992C82.1001 86.1992 93.4701 82.5992 100.41 86.6267Z" fill="#875DD0"/>
<path fill-rule="evenodd" clip-rule="evenodd" d="M103.908 98.8642C106.358 94.6492 104.79 89.1692 100.41 86.6267C93.47 82.5967 82.1 86.2017 82.1 86.2017C82.1 86.2017 84.605 97.8642 91.545 101.894C95.925 104.437 101.46 103.082 103.908 98.8642ZM43.1025 46.4692C43.5002 46.0055 44.054 45.7033 44.6592 45.62C45.2644 45.5366 45.8793 45.6777 46.3875 46.0167L53.8875 51.0167C54.2299 51.245 54.5107 51.5544 54.7048 51.9172C54.899 52.28 55.0006 52.6852 55.0006 53.0967C55.0006 53.5083 54.899 53.9134 54.7048 54.2763C54.5107 54.6391 54.2299 54.9484 53.8875 55.1767L46.3875 60.1767C45.8726 60.5202 45.2487 60.6604 44.6363 60.5703C44.024 60.4802 43.4668 60.1662 43.0727 59.689C42.6786 59.2118 42.4754 58.6054 42.5027 57.987C42.5299 57.3687 42.7855 56.7825 43.22 56.3417C45.03 54.5067 45.2825 53.6417 45.28 53.1917C45.275 52.6867 44.9575 51.7567 43.155 49.7842C42.7432 49.3332 42.5107 48.747 42.5015 48.1362C42.4923 47.5255 42.707 46.9325 43.105 46.4692M86.8975 46.4692C86.4998 46.0055 85.9461 45.7033 85.3408 45.62C84.7356 45.5366 84.1208 45.6777 83.6125 46.0167L76.1125 51.0167C75.7701 51.245 75.4894 51.5544 75.2952 51.9172C75.1011 52.28 74.9995 52.6852 74.9995 53.0967C74.9995 53.5083 75.1011 53.9134 75.2952 54.2763C75.4894 54.6391 75.7701 54.9484 76.1125 55.1767L83.6125 60.1767C84.1274 60.5202 84.7514 60.6604 85.3637 60.5703C85.9761 60.4802 86.5332 60.1662 86.9274 59.689C87.3215 59.2118 87.5246 58.6054 87.4974 57.987C87.4702 57.3687 87.2146 56.7825 86.78 56.3417C84.97 54.5067 84.7175 53.6417 84.72 53.1917C84.725 52.6867 85.0425 51.7567 86.845 49.7842C87.2569 49.3332 87.4894 48.747 87.4986 48.1362C87.5078 47.5255 87.2956 46.9325 86.8975 46.4692Z" fill="#875DD0"/>
</svg>
