<svg width="24" height="25" viewBox="0 0 24 25" fill="none" xmlns="http://www.w3.org/2000/svg">
<path d="M12.492 11.5067C12.4697 11.3837 12.4023 11.2736 12.3028 11.1979C12.2034 11.1222 12.0793 11.0865 11.9548 11.0978C11.8304 11.1091 11.7147 11.1666 11.6305 11.2589C11.5463 11.3512 11.4998 11.4717 11.5 11.5967V16.0987L11.508 16.1887C11.5303 16.3116 11.5977 16.4218 11.6972 16.4975C11.7966 16.5731 11.9207 16.6088 12.0452 16.5976C12.1696 16.5863 12.2853 16.5288 12.3695 16.4365C12.4537 16.3441 12.5002 16.2236 12.5 16.0987V11.5967L12.492 11.5067ZM12.799 9.34668C12.799 9.14777 12.72 8.957 12.5793 8.81635C12.4387 8.6757 12.2479 8.59668 12.049 8.59668C11.8501 8.59668 11.6593 8.6757 11.5187 8.81635C11.378 8.957 11.299 9.14777 11.299 9.34668C11.299 9.54559 11.378 9.73636 11.5187 9.87701C11.6593 10.0177 11.8501 10.0967 12.049 10.0967C12.2479 10.0967 12.4387 10.0177 12.5793 9.87701C12.72 9.73636 12.799 9.54559 12.799 9.34668ZM20 12.5967C20 10.4749 19.1571 8.44012 17.6569 6.93983C16.1566 5.43953 14.1217 4.59668 12 4.59668C9.87827 4.59668 7.84344 5.43953 6.34315 6.93983C4.84285 8.44012 4 10.4749 4 12.5967C4 14.7184 4.84285 16.7532 6.34315 18.2535C7.84344 19.7538 9.87827 20.5967 12 20.5967C14.1217 20.5967 16.1566 19.7538 17.6569 18.2535C19.1571 16.7532 20 14.7184 20 12.5967ZM5 12.5967C5 11.6774 5.18106 10.7672 5.53284 9.9179C5.88463 9.06862 6.40024 8.29694 7.05025 7.64693C7.70026 6.99692 8.47194 6.48131 9.32122 6.12952C10.1705 5.77774 11.0807 5.59668 12 5.59668C12.9193 5.59668 13.8295 5.77774 14.6788 6.12952C15.5281 6.48131 16.2997 6.99692 16.9497 7.64693C17.5998 8.29694 18.1154 9.06862 18.4672 9.9179C18.8189 10.7672 19 11.6774 19 12.5967C19 14.4532 18.2625 16.2337 16.9497 17.5464C15.637 18.8592 13.8565 19.5967 12 19.5967C10.1435 19.5967 8.36301 18.8592 7.05025 17.5464C5.7375 16.2337 5 14.4532 5 12.5967Z" fill="white"/>
</svg>
